<svg xmlns="http://www.w3.org/2000/svg" xmlns:xlink="http://www.w3.org/1999/xlink" viewBox="0 0 458.73 441.84"><defs><linearGradient id="a" x1="229.36" y1="433.84" x2="229.36" y2="117.84" gradientUnits="userSpaceOnUse"><stop offset="0" stop-color="#fc3f63"/><stop offset="1" stop-color="#d4145a"/></linearGradient></defs><title>ooAsset 1logo</title><polygon points="123.14 117.84 66.22 192.84 194.22 433.84 264.51 433.84 392.51 192.84 335.51 117.84 123.14 117.84" style="fill:url(#a)"/><path d="M269.32,441.84H189.41L56.75,192.07l62.42-82.23H339.48L402,192.07Zm-70.29-16H259.7L383.05,193.6l-51.51-67.76H127.11L75.68,193.6Z"/><rect x="66.36" y="184.84" width="326" height="16"/><rect x="138.11" y="267.84" width="323.88" height="16" transform="translate(-34.86 508.11) rotate(-77.34)"/><rect x="217.46" y="147.34" width="130" height="16" transform="translate(-37.87 191.41) rotate(-35.23)"/><rect x="326.33" y="80.8" width="100.65" height="16" transform="translate(17.77 233.57) rotate(-35.23)"/><polygon points="229.4 375.83 174.08 360.08 178.46 344.69 229.4 359.19 280.68 344.59 285.06 359.98 229.4 375.83"/><rect x="300.06" y="254.17" width="61.29" height="16" transform="translate(-59.15 100.57) rotate(-15.89)"/><rect x="120.18" y="231.85" width="16" height="61.15" transform="translate(-159.32 313.84) rotate(-74.11)"/><rect x="150.72" y="113.89" width="16" height="323.89" transform="translate(-56.66 41.55) rotate(-12.68)"/><rect x="168.25" y="90.32" width="16" height="130.03" transform="translate(-52.3 209.72) rotate(-54.78)"/><path d="M389.09,216.05,343.43,0l115.3,84.94ZM367.77,37.81l27.87,131.81,42.48-80Z"/><rect x="74.08" y="38.48" width="16" height="100.65" transform="translate(-37.81 104.61) rotate(-54.77)"/><path d="M69.64,216.05,0,84.94,115.3,0Zm-49-126.42,42.48,80L91,37.81Z"/></svg>
